<svg xmlns="http://www.w3.org/2000/svg" width="2500" height="2246" viewBox="0 0 256 230" preserveAspectRatio="xMinYMin meet"><path fill="#FFF" d="M.75 114.75c0 19.21 18.77 37.15 48.35 47.26-5.9 29.75-1.06 53.72 15.13 63.06 16.65 9.6 41.45 2.95 64.98-17.62 22.96 19.74 46.14 27.5 62.32 18.15 16.63-9.64 21.7-35.24 15.62-65.9 30.8-10.2 48.04-25.48 48.04-44.95 0-18.77-18.8-35-47.97-45.05 6.54-31.94 1-55.32-15.86-65.05-16.26-9.37-39.72-1.2-63 19.06C104.12 2.2 80.9-4.35 64.04 5.4 47.82 14.8 43.18 39.2 49.1 69.5 20.5 79.44.75 96.05.75 114.74z"/><path fill="#53C1DE" d="M201.03 79.67a151.36 151.36 0 0 0-7.28-2.3 137.5 137.5 0 0 0 1.13-4.95c5.5-26.73 1.9-48.26-10.4-55.35-11.78-6.8-31.06.3-50.53 17.24a151.14 151.14 0 0 0-5.62 5.17 137.57 137.57 0 0 0-3.75-3.46c-20.4-18.1-40.86-25.74-53.14-18.63-11.77 6.82-15.26 27.06-10.3 52.4a150.9 150.9 0 0 0 1.67 7.47c-2.9.82-5.68 1.7-8.36 2.63-23.92 8.34-39.2 21.4-39.2 34.97 0 14 16.4 28.05 41.32 36.57a128.44 128.44 0 0 0 6.1 1.92 147.8 147.8 0 0 0-1.76 8.07c-4.73 24.88-1.04 44.64 10.7 51.4 12.14 7 32.5-.18 52.32-17.5 1.57-1.38 3.14-2.84 4.72-4.36a148.34 148.34 0 0 0 6.1 5.58c19.2 16.52 38.18 23.2 49.9 16.4 12.13-7.02 16.07-28.25 10.95-54.08-.4-1.97-.85-4-1.36-6.04 1.43-.42 2.83-.86 4.2-1.3 25.9-8.6 42.76-22.47 42.76-36.66 0-13.6-15.77-26.76-40.18-35.17z"/><path fill="#FFF" d="M195.4 142.33c-1.23.4-2.5.8-3.8 1.18-2.85-9.04-6.7-18.66-11.43-28.6 4.5-9.72 8.22-19.22 11-28.22 2.3.67 4.55 1.38 6.7 2.12 20.92 7.2 33.68 17.84 33.68 26.04 0 8.74-13.78 20.08-36.14 27.5zm-9.27 18.4c2.26 11.4 2.58 21.74 1.08 29.8-1.33 7.26-4.04 12.1-7.4 14.04-7.1 4.12-22.34-1.24-38.76-15.37-1.88-1.62-3.78-3.35-5.68-5.18 6.37-6.97 12.73-15.06 18.94-24.05 10.92-.97 21.24-2.56 30.6-4.72.46 1.86.87 3.68 1.23 5.47zm-93.85 43.12c-6.96 2.46-12.5 2.53-15.85.6-7.13-4.1-10.1-19.98-6.05-41.26a138.5 138.5 0 0 1 1.65-7.52c9.26 2.05 19.5 3.52 30.45 4.4 6.25 8.8 12.8 16.9 19.4 23.97a118.86 118.86 0 0 1-4.3 3.97c-8.78 7.66-17.56 13.1-25.3 15.83zm-32.6-61.58c-11-3.76-20.1-8.66-26.35-14-5.6-4.8-8.43-9.56-8.43-13.43 0-8.23 12.26-18.72 32.72-25.85a139.28 139.28 0 0 1 7.78-2.46c2.83 9.2 6.54 18.8 11 28.54-4.52 9.87-8.28 19.64-11.14 28.94a118.9 118.9 0 0 1-5.58-1.75zM70.6 67.9c-4.24-21.7-1.42-38.07 5.68-42.18 7.56-4.37 24.27 1.87 41.9 17.5 1.12 1 2.25 2.06 3.38 3.14C115 53.4 108.5 61.43 102.3 70.18c-10.6.98-20.8 2.57-30.14 4.68a141.53 141.53 0 0 1-1.55-6.96zm97.48 24.07a306.98 306.98 0 0 0-6.87-11.3c7.22.9 14.12 2.12 20.6 3.6-1.94 6.24-4.37 12.77-7.22 19.46a336.42 336.42 0 0 0-6.5-11.76zm-39.75-38.7c4.45 4.8 8.9 10.2 13.3 16.04a284.25 284.25 0 0 0-26.7 0c4.38-5.8 8.88-11.16 13.4-16.04zm-40 38.77a285.24 285.24 0 0 0-6.38 11.68c-2.8-6.66-5.22-13.22-7.18-19.55 6.45-1.44 13.32-2.62 20.48-3.52a283.8 283.8 0 0 0-6.92 11.4zm7.13 57.68c-7.4-.83-14.38-1.95-20.82-3.35 2-6.44 4.45-13.14 7.32-19.95a283.5 283.5 0 0 0 6.4 11.7 285.27 285.27 0 0 0 7.1 11.6zm33.14 27.4c-4.58-4.95-9.14-10.4-13.6-16.28 4.33.17 8.74.25 13.22.25 4.6 0 9.16-.1 13.64-.3-4.4 5.97-8.84 11.44-13.26 16.3zm46.07-51.04c3.02 6.88 5.56 13.54 7.6 19.87-6.57 1.5-13.64 2.7-21.1 3.6a337.54 337.54 0 0 0 6.95-11.5 306.63 306.63 0 0 0 6.55-11.97zm-14.92 7.15a316.48 316.48 0 0 1-10.84 17.5c-6.7.47-13.62.7-20.68.7-7.03 0-13.87-.2-20.46-.63a273.8 273.8 0 0 1-11.04-17.52 271.33 271.33 0 0 1-9.64-18.2 273.86 273.86 0 0 1 9.6-18.22 271.25 271.25 0 0 1 10.97-17.44c6.72-.5 13.6-.78 20.57-.78 7 0 13.9.27 20.62.78a290.7 290.7 0 0 1 10.88 17.4 316.42 316.42 0 0 1 9.74 18.12 290.8 290.8 0 0 1-9.7 18.3zm19.92-107.8c7.56 4.37 10.5 21.97 5.75 45.04a127.53 127.53 0 0 1-1 4.5c-9.4-2.17-19.57-3.78-30.23-4.78-6.22-8.85-12.65-16.9-19.1-23.85a141.92 141.92 0 0 1 5.2-4.76c16.67-14.53 32.26-20.26 39.37-16.16z"/><path fill="#53C1DE" d="M128.22 94.67c11.15 0 20.18 9.03 20.18 20.17 0 11.15-9.04 20.18-20.18 20.18s-20.18-9.03-20.18-20.18c0-11.14 9.04-20.17 20.18-20.17"/></svg>